<svg width="137" height="121" viewBox="0 0 137 121" fill="none" xmlns="http://www.w3.org/2000/svg">
<g clip-path="url(#clip0_239_20)">
<path d="M47.8976 100.537L47.8977 100.537L47.9081 100.534L102.571 80.8978L104.72 86.2089L50.0128 105.86C47.8698 106.63 44.9629 106.982 42.2764 106.321C39.614 105.666 37.1669 104.02 35.848 100.76L18.1756 57.0807C16.8566 53.8208 17.5201 51.058 19.0441 48.8992C20.5818 46.7209 22.9993 45.1597 25.1423 44.3899L72.9624 27.2123C74.8103 26.5485 76.8229 26.5394 78.5529 27.1692C80.28 27.7979 81.5768 29.0071 82.1864 30.5138L99.6709 73.729L45.0077 93.3647L45.0076 93.3646L44.9977 93.3684C44.2275 93.6637 43.3913 94.1045 42.7858 94.7614C42.1653 95.4345 41.7954 96.3289 41.9794 97.4647L41.9793 97.4647L41.9804 97.471C42.0347 97.7806 42.1248 98.107 42.2656 98.4551C42.8339 99.8595 43.7848 100.574 44.8682 100.817C45.9084 101.05 47.0058 100.835 47.8976 100.537ZM84.1229 55.321L84.89 55.3635L84.605 54.6589L75.7688 32.8191L75.5808 32.3547L75.1112 32.5234L60.3973 37.8088L59.9276 37.9775L60.1156 38.4419L68.9518 60.2817L69.2368 60.9863L69.7792 60.4734L75.7205 54.8557L84.1229 55.321Z" fill="#FBA0C4" stroke="black"/>
<path d="M87.7584 25.415C88.0479 25.6676 88.5129 25.6522 88.7971 25.3808C89.0813 25.1093 89.0771 24.6845 88.7877 24.4319C88.4983 24.1793 88.0333 24.1947 87.749 24.4662C87.4648 24.7377 87.469 25.1625 87.7584 25.415Z" fill="#2C2A3D"/>
</g>
<g clip-path="url(#clip1_239_20)">
<path d="M114.755 31.2905L112.082 33.9416L99.4329 22.4692L102.106 19.8181C102.814 19.115 103.79 18.7093 104.819 18.6902C105.847 18.6711 106.844 19.0403 107.589 19.7164L114.617 26.0899C115.362 26.7661 115.796 27.6938 115.822 28.6691C115.848 29.6444 115.464 30.5873 114.755 31.2905Z" fill="#FBA0C4"/>
<path d="M105.193 32.7686L100.977 28.9445L78.2586 51.479L82.4751 55.3031L105.193 32.7686Z" fill="#FBA0C4"/>
<path d="M109.41 36.5927L105.193 32.7686L82.4754 55.3031L86.6919 59.1272L109.41 36.5927Z" fill="#FBA0C4"/>
<path d="M100.977 28.9445L96.7603 25.1204L74.0423 47.6549L78.2587 51.479L100.977 28.9445Z" fill="#FBA6C8"/>
<path d="M112.082 33.9416L99.4326 22.4692L96.7599 25.1204L109.409 36.5927L112.082 33.9416Z" fill="#FFE94F"/>
<path d="M74.042 47.6549L72.3486 61.3445L86.6914 59.1272L74.042 47.6549Z" fill="#FFE94F"/>
<path d="M83.176 59.7453L73.6889 51.141L74.042 47.6549L86.6914 59.1272L83.176 59.7453Z" fill="#DEB142"/>
<path d="M78.3248 60.4206L73.0542 55.6405L72.3486 61.3445L78.3248 60.4206Z" fill="#5C3B51"/>
<path d="M115.285 25.4272L108.257 19.0536C107.326 18.2085 106.08 17.747 104.794 17.7709C103.509 17.7947 102.289 18.3019 101.403 19.1808L73.3394 47.0176C73.2599 47.094 73.1992 47.1862 73.1615 47.2876C73.1615 47.2876 73.1615 47.2876 73.1214 47.3273C73.0944 47.3808 73.0773 47.4383 73.071 47.4974L72.0832 55.4829L71.3776 61.1869C71.3601 61.3286 71.3776 61.4724 71.4288 61.6069C71.48 61.7414 71.5635 61.863 71.6726 61.9619C71.7817 62.0608 71.9134 62.1345 72.0574 62.177C72.2013 62.2194 72.3536 62.2296 72.502 62.2067L78.4782 61.2828L86.8449 59.9895C86.9068 59.9809 86.9666 59.9621 87.0217 59.9342C87.0217 59.9342 87.0217 59.9342 87.0618 59.8944C87.182 59.8766 87.2959 59.8321 87.3944 59.7646L115.458 31.9278C116.344 31.0489 116.823 29.8703 116.791 28.6512C116.759 27.4321 116.217 26.2724 115.285 25.4272ZM79.6296 51.4536L101.011 30.2446L103.822 32.794L82.4406 54.003L79.6296 51.4536ZM75.4131 47.6295L96.7947 26.4205L99.6057 28.9699L78.2241 50.1789L75.4131 47.6295ZM109.375 35.2926L98.1311 25.095L99.4675 23.7694L110.711 33.967L109.375 35.2926ZM105.228 34.0688L108.039 36.6182L86.6571 57.8272L83.8461 55.2778L105.228 34.0688ZM102.808 20.4555C103.34 19.9282 104.072 19.6239 104.843 19.6096C105.615 19.5952 106.362 19.8721 106.921 20.3792L113.949 26.7527C114.508 27.2598 114.833 27.9557 114.852 28.6871C114.872 29.4186 114.584 30.1258 114.052 30.6531L112.048 32.6415L100.804 22.4438L102.808 20.4555ZM73.7917 57.578L76.2513 59.8087L73.4647 60.2377L73.7917 57.578ZM78.6418 59.4392L74.0739 55.2964L74.7795 49.5924L84.618 58.5154L78.6418 59.4392Z" fill="#2C2A3D"/>
</g>
<defs>
<clipPath id="clip0_239_20">
<rect width="93.9857" height="80.6095" fill="white" transform="matrix(0.939326 -0.337418 0.375832 0.928914 0.358887 45.6136)"/>
</clipPath>
<clipPath id="clip1_239_20">
<rect width="60.5372" height="60.4146" fill="white" transform="matrix(0.742945 0.67381 -0.70783 0.702115 90.6196 0.519531)"/>
</clipPath>
</defs>
</svg>
